<svg t="1740495833720" class="icon" viewBox="0 0 1024 1024" version="1.1" xmlns="http://www.w3.org/2000/svg" p-id="18605" width="128" height="128"><path d="M871.822222 501.987556A85.333333 85.333333 0 0 0 853.333333 408.974222l-281.031111-281.031111a85.333333 85.333333 0 0 0-120.604444 0L170.666667 409.031111a85.333333 85.333333 0 0 0 60.302222 145.635556H341.333333v213.333333c0 23.608889 19.114667 42.666667 42.666667 42.666667h256a42.666667 42.666667 0 0 0 42.666667-42.666667V554.666667h110.364444a85.333333 85.333333 0 0 0 78.791111-52.622223zM426.666667 512a42.666667 42.666667 0 0 0-42.666667-42.666667H230.968889L512 188.302222l281.031111 281.031111h-153.031111a42.666667 42.666667 0 0 0-42.666667 42.666667v213.333333h-170.666666V512z" p-id="18606" fill="#00796b"></path><path d="M640 938.666667a42.666667 42.666667 0 0 0 0-85.333334h-256a42.666667 42.666667 0 0 0 0 85.333334h256z" p-id="18607" fill="#00796b"></path></svg>