<svg t="1740495595656" class="icon" viewBox="0 0 1024 1024" version="1.1" xmlns="http://www.w3.org/2000/svg" p-id="14795" width="128" height="128"><path d="M577.3056 106.9056a115.2 115.2 0 0 0-109.7728 115.072v45.0048l-4.864 0.768c-122.4192 19.8656-223.3856 61.8752-298.0096 136.6016C57.9584 511.232 20.224 673.4592 63.9232 896.6912c6.912 35.2512 54.0672 42.5728 71.3472 11.1104l5.8368-10.496c98.9952-176.512 194.7648-250.0608 320-265.3952l6.4256-0.768v50.432a115.2 115.2 0 0 0 190.8736 86.8608l267.7248-233.216a115.2 115.2 0 0 0-1.28-174.848L657.1008 134.016a115.2 115.2 0 0 0-74.3936-27.2384l-5.4272 0.128z m5.4272 76.672a38.4 38.4 0 0 1 24.8064 9.088l267.6992 226.3552a38.4 38.4 0 0 1 0.4352 58.2912l-267.6992 233.216a38.4 38.4 0 0 1-63.6416-28.9536v-91.136a38.4 38.4 0 0 0-39.04-38.4l-8.7808 0.2048c-145.9968 4.8128-260.5568 66.7392-366.1312 217.344l-5.6064 8.0896-0.5632-8.0896c-9.1392-139.9808 25.088-241.152 94.7712-310.9632 67.9424-68.0192 167.168-104.96 291.584-120.064a38.4 38.4 0 0 0 33.792-38.144V221.9776a38.4 38.4 0 0 1 38.4-38.4z" fill="#00796b" p-id="14796"></path></svg>