<svg t="1740495241045" class="icon" viewBox="0 0 1024 1024" version="1.1" xmlns="http://www.w3.org/2000/svg" p-id="13675" width="128" height="128"><path d="M372.291 228.366c-13.8-6.258-29.851-3.405-40.869 7.258L76.249 483.005c-15.277 14.793-16.126 39.658-1.896 55.54a37.53 37.53 0 0 0 1.896 1.971l255.173 247.38c15.262 14.811 39.181 13.954 53.425-1.91 6.542-7.284 10.176-16.879 10.169-26.844v-103.14h234.537v103.187c-0.014 21.703 16.897 39.31 37.772 39.324 9.585 0.007 18.814-3.771 25.818-10.57l255.173-247.384c15.277-14.789 16.126-39.658 1.9-55.537a39.307 39.307 0 0 0-1.9-1.971L693.144 235.714c-15.259-14.807-39.181-13.95-53.425 1.914-6.516 7.262-10.151 16.818-10.165 26.75v103.281H395.013V264.425c0-15.675-8.893-29.819-22.721-36.063v0.004z m-52.92 126.393v52.149c0 21.729 16.943 39.296 37.797 39.296h310.229c20.875 0 37.801-17.592 37.801-39.296v-52.149l161.918 157.004-161.964 157v-52.149c0-21.682-16.897-39.296-37.801-39.296H357.215c-20.901 0-37.801 17.614-37.801 39.296v52.149l-161.961-157 161.961-157.004h-0.043z" p-id="13676" fill="#00796b"></path></svg>